<?xml version="1.0" standalone="no"?>
<!DOCTYPE svg PUBLIC "-//W3C//DTD SVG 20010904//EN"
 "http://www.w3.org/TR/2001/REC-SVG-20010904/DTD/svg10.dtd">
<svg version="1.0" xmlns="http://www.w3.org/2000/svg"
 width="921.000000pt" height="1280.000000pt" viewBox="0 0 921.000000 1280.000000"
 preserveAspectRatio="xMidYMid meet">
<g transform="translate(0.000000,1280.000000) scale(0.100000,-0.100000)"
fill="#000000" stroke="none">
<path d="M6654 12776 c-164 -52 -257 -168 -258 -321 -1 -120 48 -212 150 -280
97 -65 217 -81 327 -44 165 55 264 208 238 370 -22 137 -114 232 -267 278 -87
26 -100 25 -190 -3z"/>
<path d="M6225 12214 c-77 -29 -277 -83 -513 -140 -307 -73 -401 -103 -547
-174 -257 -126 -437 -324 -528 -579 -18 -49 -36 -93 -39 -97 -4 -3 -59 -1
-124 5 -64 7 -119 10 -121 7 -3 -3 -9 -40 -14 -82 -5 -43 -13 -82 -18 -87 -5
-5 -65 -17 -133 -28 -640 -94 -1178 -478 -1442 -1029 -84 -176 -128 -325 -163
-560 -7 -46 -12 -55 -32 -60 -13 -3 -28 -12 -32 -20 -7 -13 -59 -493 -59 -543
0 -10 10 -21 23 -26 12 -4 171 -20 352 -35 182 -15 340 -32 353 -37 22 -9 22
-10 22 -228 l0 -219 -212 -6 c-117 -4 -321 -9 -453 -12 -205 -5 -242 -8 -253
-22 -8 -11 -12 -58 -12 -149 l0 -133 -64 0 c-36 0 -67 4 -70 8 -2 4 11 62 30
127 38 132 41 157 20 178 -22 22 -161 42 -281 41 -412 -5 -707 -291 -933 -904
-66 -177 -152 -483 -242 -855 -40 -165 -93 -383 -119 -485 -52 -211 -38 -196
-159 -170 l-63 14 -199 -199 c-110 -110 -200 -206 -200 -213 0 -7 4 -20 10
-30 5 -9 64 -255 130 -547 67 -291 125 -546 130 -565 l10 -35 239 -60 c132
-32 242 -57 245 -55 2 3 -29 158 -70 345 -40 187 -73 346 -74 353 0 20 42 14
294 -38 131 -28 240 -50 242 -50 19 0 -21 -76 -167 -318 -94 -156 -169 -285
-166 -288 10 -11 503 -121 510 -114 15 13 407 921 407 943 0 30 -101 530 -110
540 -3 4 -37 16 -74 26 -37 10 -72 23 -77 28 -9 9 448 1622 474 1673 l13 25
154 0 155 0 5 -1242 c3 -831 8 -1245 15 -1252 6 -6 91 -12 210 -13 l200 -3 0
-770 0 -770 -72 -3 -73 -3 0 -1252 0 -1253 -46 -69 c-117 -178 -174 -356 -174
-544 l0 -90 28 -3 c21 -2 28 -9 30 -30 l3 -28 567 1 c312 1 792 5 1067 8 l500
6 3 88 c5 150 -38 336 -109 479 l-29 57 0 1310 0 1310 -47 3 -48 3 0 305 0
305 38 3 37 3 0 94 c0 54 4 97 10 100 6 4 48 -12 93 -34 96 -47 226 -81 315
-81 83 0 201 25 287 61 38 16 73 29 77 29 5 0 8 -169 8 -375 l0 -374 -62 -3
-63 -3 -5 -1305 -5 -1305 -24 -38 c-75 -121 -127 -278 -141 -427 -10 -111 -3
-162 24 -166 22 -3 36 -21 36 -46 0 -17 28 -18 463 -17 254 1 732 5 1062 8
l600 6 7 60 c20 165 -39 405 -139 568 l-38 62 -5 1295 -5 1295 -55 5 -55 5 -3
740 c-1 407 0 750 3 763 5 19 12 22 60 22 67 0 71 6 77 119 4 76 7 86 29 100
86 56 159 158 159 224 0 71 -61 142 -132 153 -30 5 -42 13 -51 33 -12 28 -24
1851 -12 1898 5 21 11 23 61 23 38 0 56 -4 60 -14 3 -8 -6 -55 -20 -105 -32
-111 -33 -136 -3 -155 56 -35 304 -48 427 -22 347 74 609 388 807 971 79 232
115 370 319 1210 31 127 61 236 68 243 11 11 28 9 99 -9 l85 -22 206 199 c113
109 206 205 206 212 0 7 -4 21 -9 30 -5 9 -64 256 -130 547 -67 292 -126 546
-131 566 l-10 37 -225 56 c-248 62 -269 65 -261 39 8 -27 146 -672 146 -683 0
-16 -23 -13 -287 41 -203 42 -253 55 -253 68 0 9 77 144 170 300 94 156 168
286 166 289 -3 3 -117 31 -253 63 -190 44 -251 55 -259 46 -22 -25 -404 -917
-404 -944 1 -15 25 -143 54 -283 l52 -254 63 -19 c34 -10 64 -24 67 -32 6 -15
-483 -1722 -499 -1742 -7 -9 -51 -13 -157 -13 -126 0 -149 2 -154 16 -3 9 -6
65 -6 125 0 60 -1 110 -2 111 -2 1 -192 5 -423 8 l-420 5 -3 103 c-2 80 0 104
11 108 8 3 92 -2 187 -11 117 -10 177 -12 184 -5 5 5 22 135 38 287 l29 278
-25 20 c-25 20 -25 21 -19 145 26 567 -244 1118 -722 1475 -180 134 -452 269
-638 316 -27 6 -51 17 -53 23 -2 6 -1 46 4 89 5 43 5 80 1 82 -4 3 -65 10
-135 16 -71 6 -135 17 -142 23 -10 10 -9 23 4 66 46 156 132 297 246 406 164
155 301 220 744 354 229 69 517 169 532 185 10 9 -23 4 -63 -11z"/>
</g>
</svg>
