<?xml version="1.0" encoding="iso-8859-1"?>
<!-- Generator: Adobe Illustrator 19.0.0, SVG Export Plug-In . SVG Version: 6.00 Build 0)  -->
<svg version="1.1" id="Layer_1" xmlns="http://www.w3.org/2000/svg" xmlns:xlink="http://www.w3.org/1999/xlink" x="0px" y="0px"
	 viewBox="0 0 512 512" style="enable-background:new 0 0 512 512;" xml:space="preserve">
<g>
	<g>
		<path d="M256.001,233.467c-17.567,0-31.856,14.291-31.856,31.857s14.291,31.857,31.856,31.857s31.857-14.291,31.857-31.857
			S273.566,233.467,256.001,233.467z"/>
	</g>
</g>
<g>
	<g>
		<path d="M342.673,127.458l15.815-38.674c0.018,0,0.036,0.001,0.053,0.001c17.495,0,34.114-10.413,41.136-27.583
			c4.488-10.972,4.433-23.036-0.154-33.968c-4.586-10.931-13.154-19.423-24.127-23.909c-10.972-4.488-23.035-4.433-33.968,0.154
			c-10.931,4.586-19.423,13.154-23.91,24.127v0.001c-7.026,17.185-2.444,36.271,10.066,48.529l-14.366,35.131
			c-17.653-7.271-36.974-11.294-57.22-11.294s-39.566,4.022-57.22,11.294l-14.366-35.131c12.51-12.259,17.092-31.344,10.066-48.529
			v-0.001c-4.487-10.972-12.979-19.541-23.91-24.127c-10.933-4.586-22.995-4.64-33.967-0.154
			c-10.973,4.485-19.542,12.978-24.128,23.909c-4.587,10.931-4.641,22.995-0.154,33.968c7.022,17.17,23.638,27.583,41.136,27.583
			c0.018,0,0.036-0.001,0.053-0.001l15.815,38.674c-38.713,27.308-64.049,72.369-64.049,123.24V512h301.445V250.698
			C406.723,199.827,381.387,154.766,342.673,127.458z M294.767,436.687h-77.532v-33.39h77.532V436.687z M256.001,323.542
			c-32.101,0-58.218-26.117-58.218-58.218c0-32.101,26.117-58.218,58.218-58.218s58.218,26.117,58.218,58.218
			C314.219,297.425,288.102,323.542,256.001,323.542z"/>
	</g>
</g>
<g>
</g>
<g>
</g>
<g>
</g>
<g>
</g>
<g>
</g>
<g>
</g>
<g>
</g>
<g>
</g>
<g>
</g>
<g>
</g>
<g>
</g>
<g>
</g>
<g>
</g>
<g>
</g>
<g>
</g>
</svg>
